<svg id="Capa_1" data-name="Capa 1" xmlns="http://www.w3.org/2000/svg" viewBox="0 0 25 25"><path d="M12.5,25A12.5,12.5,0,0,1,3.66,3.662,12.5,12.5,0,1,1,21.339,21.338,12.412,12.412,0,0,1,12.5,25Z" fill="#e07d14"/><path d="M17.525,16.3A2.171,2.171,0,0,1,16.3,17.524a14.19,14.19,0,0,1-3.8.26,14.29,14.29,0,0,1-3.8-.26A2.172,2.172,0,0,1,7.476,16.3a14.224,14.224,0,0,1-.258-3.8,14.347,14.347,0,0,1,.258-3.8A2.177,2.177,0,0,1,8.7,7.476a14.175,14.175,0,0,1,3.8-.259,14.305,14.305,0,0,1,3.8.259A2.172,2.172,0,0,1,17.525,8.7a14.193,14.193,0,0,1,.259,3.8A14.171,14.171,0,0,1,17.525,16.3Zm1.464-6.493a3.87,3.87,0,0,0-1.055-2.738A3.9,3.9,0,0,0,15.2,6.011c-1.079-.06-4.312-.06-5.391,0A3.9,3.9,0,0,0,7.065,7.064,3.89,3.89,0,0,0,6.009,9.8c-.06,1.078-.06,4.312,0,5.392a3.875,3.875,0,0,0,1.056,2.738A3.9,3.9,0,0,0,9.8,18.989c1.079.061,4.312.061,5.391,0a3.873,3.873,0,0,0,2.739-1.056A3.9,3.9,0,0,0,18.989,15.2C19.05,14.115,19.05,10.885,18.989,9.806Zm-2.156-.793a.845.845,0,1,1-.845-.845A.842.842,0,0,1,16.833,9.013Zm-4.333,5.6A2.112,2.112,0,1,1,14.612,12.5,2.115,2.115,0,0,1,12.5,14.612Zm0-5.462a3.351,3.351,0,1,0,3.352,3.35A3.344,3.344,0,0,0,12.5,9.15Z" fill="#fff"/></svg>