<svg id="Capa_1" data-name="Capa 1" xmlns="http://www.w3.org/2000/svg" viewBox="0 0 25 25"><path d="M12.7,18.03c1.724-.1,3.609-.178,5.489-.314a1.9,1.9,0,0,0,1.847-1.681,19.244,19.244,0,0,0,.249-4.522A21.434,21.434,0,0,0,20,8.85a1.823,1.823,0,0,0-1.557-1.517,8.311,8.311,0,0,0-1.112-.144,71.485,71.485,0,0,0-10.192.043A2.124,2.124,0,0,0,4.9,9.315a20.5,20.5,0,0,0-.182,4.113A24.4,24.4,0,0,0,5,16.141a1.832,1.832,0,0,0,1.527,1.521,4.4,4.4,0,0,0,.747.108C9.025,17.859,10.78,17.939,12.7,18.03ZM13.281,25H11.718c-.071-.014-.141-.031-.212-.041-.642-.1-1.293-.159-1.924-.309a12.486,12.486,0,0,1-9.393-10C.112,14.2.062,13.739,0,13.282V11.718c.037-.3.067-.61.111-.914a12.3,12.3,0,0,1,3-6.552A12.248,12.248,0,0,1,10.082.242C10.623.135,11.173.079,11.718,0h1.563a1.244,1.244,0,0,0,.189.039A11.882,11.882,0,0,1,18.9,1.766a12.335,12.335,0,0,1,5.911,8.581c.084.454.128.914.191,1.371v1.564a1.745,1.745,0,0,0-.041.211,12.059,12.059,0,0,1-2.024,5.88,12.341,12.341,0,0,1-8.258,5.434C14.216,24.893,13.747,24.937,13.281,25Z" fill="#f39200"/><path d="M10.952,10.162v4.676L15.013,12.5ZM12.7,18.03c-1.919-.092-3.674-.171-5.428-.26a4.4,4.4,0,0,1-.747-.108A1.829,1.829,0,0,1,5,16.141a24.17,24.17,0,0,1-.283-2.713A20.5,20.5,0,0,1,4.9,9.315,2.125,2.125,0,0,1,7.14,7.232a71.471,71.471,0,0,1,10.191-.043,8.29,8.29,0,0,1,1.112.144A1.823,1.823,0,0,1,20,8.85a21.412,21.412,0,0,1,.283,2.663,19.194,19.194,0,0,1-.249,4.522,1.9,1.9,0,0,1-1.847,1.681C16.308,17.852,14.423,17.934,12.7,18.03Z" fill="#fff"/><polygon points="10.952 10.162 15.013 12.5 10.952 14.838 10.952 10.162" fill="#f39200"/></svg>