<svg id="Capa_1" data-name="Capa 1" xmlns="http://www.w3.org/2000/svg" viewBox="0 0 330 90"><rect x="141.039" y="13.309" width="13.725" height="8.696" fill="#1d1d1b"/><rect x="161.578" y="0.032" width="13.725" height="55.892" fill="#1d1d1b"/><rect x="141.039" y="26.225" width="13.725" height="29.699" fill="#1d1d1b"/><path d="M87.133,26.166V50.954a27.853,27.853,0,0,0,.128,2.87,13.053,13.053,0,0,0,.365,2.1H73.96a8.441,8.441,0,0,1-.4-1.962,24.719,24.719,0,0,1-.148-2.889,17.99,17.99,0,0,1-5.532,4.2,14.833,14.833,0,0,1-6.4,1.371q-6.759,0-10.284-3.451t-3.52-10.1V26.166H61.428v16.5q0,3.4,1.3,4.97a5.082,5.082,0,0,0,4.122,1.558,5.9,5.9,0,0,0,4.94-2.061q1.611-2.072,1.617-6.291V26.166H87.133" fill="#1d1d1b" fill-rule="evenodd"/><polyline points="16.682 46.626 42.594 46.626 42.594 55.924 0.127 55.924 0.127 44.2 24.137 22.676 1.428 22.676 1.428 13.318 41.786 13.318 41.786 24.638 16.682 46.626" fill="#1d1d1b" fill-rule="evenodd"/><path d="M121.565,41.183a9.521,9.521,0,0,0-1.844-6.192,6.152,6.152,0,0,0-5.029-2.268,6.4,6.4,0,0,0-5.215,2.179q-1.806,2.188-1.805,6.34a9.288,9.288,0,0,0,1.824,6.114,6.944,6.944,0,0,0,10.176-.079,9.161,9.161,0,0,0,1.893-6.094m-27.5-27.865H107.79V30.475a16.368,16.368,0,0,1,5.493-3.777,17.137,17.137,0,0,1,6.635-1.252,14.832,14.832,0,0,1,11.28,4.476q4.26,4.484,4.26,11.872,0,6.731-4.2,10.787T120.1,56.644a16.748,16.748,0,0,1-6.961-1.4,14.487,14.487,0,0,1-5.345-4.122q0,1.479-.118,2.692a11.427,11.427,0,0,1-.375,2.11H93.572a13.053,13.053,0,0,0,.365-2.1,27.853,27.853,0,0,0,.128-2.87Z" fill="#1d1d1b" fill-rule="evenodd"/><path d="M316.176,43.046q-6.64,0-9.052.868a3.109,3.109,0,0,0-2.415,3.027,2.666,2.666,0,0,0,1.173,2.3,5.73,5.73,0,0,0,3.3.819,7.463,7.463,0,0,0,5.246-1.627,6.438,6.438,0,0,0,1.745-4.92v-.464m.286,8.48a11.638,11.638,0,0,1-5.078,3.816,20.505,20.505,0,0,1-7.573,1.243q-6.33,0-9.732-2.249a7.213,7.213,0,0,1-3.411-6.389q0-5.62,5.876-8.125t19.691-2.613c0-.059.01-.167.03-.335a3.215,3.215,0,0,0,.029-.355,4.207,4.207,0,0,0-1.37-3.422,6.407,6.407,0,0,0-4.122-1.124,7.37,7.37,0,0,0-3.816.819,3.4,3.4,0,0,0-1.587,2.475H292.748a8,8,0,0,1,4.683-7.347q4.586-2.409,14.012-2.415,9.036,0,13.459,2.82t4.418,8.569V52.019a15.822,15.822,0,0,0,.128,2.288,6.619,6.619,0,0,0,.453,1.617H317.192a12.091,12.091,0,0,1-.553-2.15A13.954,13.954,0,0,1,316.462,51.526Z" fill="#1d1d1b" fill-rule="evenodd"/><path d="M265.652,32.378a6.706,6.706,0,0,0-5.285,2.12,8.709,8.709,0,0,0-1.873,5.966,8.276,8.276,0,0,0,1.873,5.718,7.238,7.238,0,0,0,10.186.03,8.5,8.5,0,0,0,1.834-5.808,9,9,0,0,0-1.765-5.936,6.15,6.15,0,0,0-4.97-2.09m20.342,20.164q0,7.8-5.433,11.477t-16.92,3.688q-9.051,0-13.607-2.514a8.088,8.088,0,0,1-4.566-7.514v-.286H259.48a3.492,3.492,0,0,0,1.4,2.948,7.241,7.241,0,0,0,4.171.956q4.1,0,5.66-1.675t1.557-6.478V49.821a16.032,16.032,0,0,1-5.5,3.924,17.328,17.328,0,0,1-6.8,1.282q-6.951,0-11.172-3.855a13.191,13.191,0,0,1-4.22-10.216q0-7.01,4.26-11.26t11.309-4.25a17.987,17.987,0,0,1,6.439,1.114,15.291,15.291,0,0,1,5.2,3.3c.04-.484.1-1.026.188-1.647s.207-1.3.365-2.051H286.4c-.138.887-.237,1.677-.305,2.386s-.1,1.243-.1,1.627Z" fill="#1d1d1b" fill-rule="evenodd"/><path d="M226.464,43.046q-6.64,0-9.052.868A3.11,3.11,0,0,0,215,46.941a2.667,2.667,0,0,0,1.174,2.3,5.73,5.73,0,0,0,3.3.819,7.463,7.463,0,0,0,5.246-1.627,6.438,6.438,0,0,0,1.745-4.92v-.464m.286,8.48a11.644,11.644,0,0,1-5.078,3.816,20.509,20.509,0,0,1-7.573,1.243q-6.33,0-9.732-2.249a7.214,7.214,0,0,1-3.412-6.389q0-5.62,5.878-8.125t19.69-2.613c0-.059.01-.167.03-.335a3.489,3.489,0,0,0,.029-.355,4.207,4.207,0,0,0-1.37-3.422,6.407,6.407,0,0,0-4.122-1.124,7.37,7.37,0,0,0-3.816.819,3.4,3.4,0,0,0-1.587,2.475H203.036a8,8,0,0,1,4.684-7.347q4.584-2.409,14.011-2.415,9.038,0,13.459,2.82t4.418,8.569V52.019a15.99,15.99,0,0,0,.127,2.288,6.71,6.71,0,0,0,.454,1.617H227.48a12,12,0,0,1-.552-2.15A13.84,13.84,0,0,1,226.75,51.526Z" fill="#1d1d1b" fill-rule="evenodd"/><rect x="182.02" y="0.032" width="13.725" height="55.892" fill="#1d1d1b"/><polygon points="175.19 0 161.575 0 161.575 13.666 175.19 0" fill="#f39200"/><polygon points="195.614 0.034 181.999 0.034 181.999 13.7 195.614 0.034" fill="#f39200"/><path d="M1.643,89.666V71.4H6.849a11.576,11.576,0,0,1,3.591.5,4.665,4.665,0,0,1,2.4,1.685,5.308,5.308,0,0,1,.863,3.187,4.971,4.971,0,0,1-1.865,4.26A7.943,7.943,0,0,1,6.96,82.428H3.954v7.238Zm2.311-9.131H6.682a5.724,5.724,0,0,0,3.549-.905,3.4,3.4,0,0,0,1.156-2.854,2.989,2.989,0,0,0-1.211-2.742,6.84,6.84,0,0,0-3.605-.765H3.954Z"/><path d="M23.887,90a7.335,7.335,0,0,1-3.354-.751,5.318,5.318,0,0,1-2.353-2.478,10.5,10.5,0,0,1-.863-4.65V71.4h2.311V82.177a8.591,8.591,0,0,0,.571,3.466,3.672,3.672,0,0,0,1.53,1.8,4.4,4.4,0,0,0,2.158.529,4.526,4.526,0,0,0,2.2-.529,3.647,3.647,0,0,0,1.546-1.8,8.61,8.61,0,0,0,.57-3.466V71.4h2.227V82.121a10.487,10.487,0,0,1-.863,4.65,5.339,5.339,0,0,1-2.338,2.478A7.257,7.257,0,0,1,23.887,90Z"/><path d="M35.357,89.666V71.4H45.88v1.949H37.668v5.735H44.6v1.977H37.668V87.69h8.49v1.976Z"/><path d="M50.028,89.666V71.4h5.707a10.4,10.4,0,0,1,3.314.487,4.486,4.486,0,0,1,2.268,1.615,5.866,5.866,0,0,1-.292,6.431A5.642,5.642,0,0,1,58.018,81.7l4.649,7.962H60.051l-4.4-7.711H52.339v7.711Zm2.311-9.6H55.4a5.3,5.3,0,0,0,3.285-.877,3.14,3.14,0,0,0,1.142-2.659,2.761,2.761,0,0,0-1.142-2.533,6.163,6.163,0,0,0-3.285-.723H52.339Z"/><path d="M69.266,89.666V73.352H63.753V71.4H77.116v1.949H71.6V89.666Z"/><path d="M76.866,89.666,83.046,71.4h2.617l6.18,18.263H89.366L87.639,84.1H80.986l-1.754,5.568Zm5.567-10.218-.863,2.785h5.485l-.863-2.785q-.5-1.528-.946-3.048t-.891-3.1h-.112q-.418,1.587-.863,3.1T82.433,79.448Z"/><path d="M99.5,90a8.59,8.59,0,0,1-3.563-.738A9.171,9.171,0,0,1,93.1,87.3l1.392-1.614a7.6,7.6,0,0,0,2.3,1.656,6.329,6.329,0,0,0,2.742.627,4.325,4.325,0,0,0,2.812-.821,2.655,2.655,0,0,0,1-2.158,2.523,2.523,0,0,0-.4-1.5,3.439,3.439,0,0,0-1.086-.946q-.684-.39-1.545-.78L97.69,80.618a9.51,9.51,0,0,1-1.712-.946,4.987,4.987,0,0,1-1.42-1.5,4.189,4.189,0,0,1-.571-2.255,4.374,4.374,0,0,1,.738-2.492,5,5,0,0,1,2.046-1.726,6.757,6.757,0,0,1,2.951-.626,7.316,7.316,0,0,1,3.034.626,7.634,7.634,0,0,1,2.367,1.629l-1.253,1.5a6.514,6.514,0,0,0-1.851-1.266,5.526,5.526,0,0,0-2.3-.46,3.9,3.9,0,0,0-2.464.724,2.339,2.339,0,0,0-.932,1.949,2.217,2.217,0,0,0,.459,1.434,3.565,3.565,0,0,0,1.155.932q.7.363,1.42.669l2.589,1.113a9.218,9.218,0,0,1,1.907,1.072,4.752,4.752,0,0,1,1.35,1.531,4.631,4.631,0,0,1,.5,2.269,4.807,4.807,0,0,1-.751,2.631,5.239,5.239,0,0,1-2.144,1.879A7.331,7.331,0,0,1,99.5,90Z"/><path d="M114.867,89.666V71.4h2.394l6.6,11.47,1.977,3.786h.111q-.083-1.391-.181-2.881t-.1-2.937V71.4h2.2V89.666h-2.394l-6.626-11.5-1.976-3.758h-.112q.111,1.364.208,2.812t.1,2.9v9.549Z"/><path d="M139.616,90a7.178,7.178,0,0,1-4.051-1.169,7.745,7.745,0,0,1-2.756-3.313,12.007,12.007,0,0,1-.988-5.067,11.723,11.723,0,0,1,.988-5.025,7.512,7.512,0,0,1,2.756-3.23,7.868,7.868,0,0,1,8.115,0,7.629,7.629,0,0,1,2.757,3.23,11.587,11.587,0,0,1,1,5.025,11.867,11.867,0,0,1-1,5.067,7.868,7.868,0,0,1-2.757,3.313A7.158,7.158,0,0,1,139.616,90Zm0-2.032a4.543,4.543,0,0,0,2.854-.933,6,6,0,0,0,1.879-2.617,10.734,10.734,0,0,0,.668-3.967,8.8,8.8,0,0,0-1.475-5.373,4.886,4.886,0,0,0-7.851,0,8.79,8.79,0,0,0-1.476,5.373,10.713,10.713,0,0,0,.669,3.967,5.943,5.943,0,0,0,1.892,2.617A4.557,4.557,0,0,0,139.616,87.968Z"/><path d="M151.364,89.666V71.4h5.429a10.849,10.849,0,0,1,3.271.446,4.5,4.5,0,0,1,2.2,1.42,3.967,3.967,0,0,1,.794,2.589,4.581,4.581,0,0,1-.682,2.463,3.512,3.512,0,0,1-1.99,1.518v.111a4.855,4.855,0,0,1,2.686,1.392,4.118,4.118,0,0,1,1.044,2.979,4.9,4.9,0,0,1-.877,2.978,5.177,5.177,0,0,1-2.436,1.782,10.277,10.277,0,0,1-3.619.585Zm2.311-10.5h2.7a5.514,5.514,0,0,0,3.368-.807,2.643,2.643,0,0,0,1.03-2.2,2.445,2.445,0,0,0-1.072-2.255,6.17,6.17,0,0,0-3.216-.668h-2.811Zm0,8.658h3.174a6.563,6.563,0,0,0,3.674-.876,3.039,3.039,0,0,0,1.309-2.715,2.714,2.714,0,0,0-1.295-2.492,7.093,7.093,0,0,0-3.688-.793h-3.174Z"/><path d="M167.734,89.666V71.4h2.311V87.69h7.99v1.976Z"/><path d="M181.264,89.666V71.4h10.524v1.949h-8.213v5.735h6.932v1.977h-6.932V87.69h8.491v1.976Z"/><path d="M201,90a8.6,8.6,0,0,1-3.564-.738A9.171,9.171,0,0,1,194.6,87.3l1.392-1.614a7.6,7.6,0,0,0,2.3,1.656,6.33,6.33,0,0,0,2.743.627,4.322,4.322,0,0,0,2.811-.821,2.653,2.653,0,0,0,1-2.158,2.523,2.523,0,0,0-.4-1.5,3.439,3.439,0,0,0-1.086-.946q-.682-.39-1.545-.78l-2.617-1.141a9.51,9.51,0,0,1-1.712-.946,4.987,4.987,0,0,1-1.42-1.5,4.189,4.189,0,0,1-.571-2.255,4.374,4.374,0,0,1,.738-2.492,5.006,5.006,0,0,1,2.046-1.726,6.757,6.757,0,0,1,2.951-.626,7.324,7.324,0,0,1,3.035.626,7.63,7.63,0,0,1,2.366,1.629l-1.252,1.5a6.519,6.519,0,0,0-1.852-1.266,5.523,5.523,0,0,0-2.3-.46,3.9,3.9,0,0,0-2.463.724,2.337,2.337,0,0,0-.933,1.949,2.217,2.217,0,0,0,.459,1.434,3.565,3.565,0,0,0,1.155.932q.7.363,1.42.669l2.589,1.113a9.252,9.252,0,0,1,1.908,1.072,4.761,4.761,0,0,1,1.349,1.531,4.631,4.631,0,0,1,.5,2.269,4.808,4.808,0,0,1-.752,2.631,5.239,5.239,0,0,1-2.144,1.879A7.329,7.329,0,0,1,201,90Z"/></svg>